<?xml version="1.0" encoding="utf-8"?>
<!-- Generator: Adobe Illustrator 23.0.1, SVG Export Plug-In . SVG Version: 6.00 Build 0)  -->
<svg version="1.1" id="Layer_1" xmlns="http://www.w3.org/2000/svg" xmlns:xlink="http://www.w3.org/1999/xlink" x="0px" y="0px"
	 viewBox="0 0 126 126" style="enable-background:new 0 0 126 126;" xml:space="preserve">
<style type="text/css">
	.st0{fill:none;}
	.st1{fill-rule:evenodd;clip-rule:evenodd;fill:#90BB49;}
	.st2{fill-rule:evenodd;clip-rule:evenodd;fill:#D6CF8D;}
	.st3{fill:none;stroke:#001E62;stroke-width:2.8;stroke-linecap:square;stroke-linejoin:round;}
</style>
<title>B0B2D737-888E-4E42-84BD-856A2E7D2D4E</title>
<desc>Created with sketchtool.</desc>
<g id="Design">
	<g id="Landing_1440_desktop" transform="translate(-120.000000, -4224.000000)">
		<g id="Treatwell-Connect" transform="translate(0.000000, 3572.000000)">
			<g id="item" transform="translate(100.000000, 632.000000)">
				<g id="Illustration" transform="translate(20.000000, 20.000000)">
					<rect id="Box" class="st0" width="126" height="126"/>
					<g id="Page-1" transform="translate(18.000000, 9.000000)">
						<path id="Fill-1" class="st1" d="M79.6,84.2c9.6-2.7,10.2-12,10.2-12c-9.2,0-17.1-5.8-20.2-13.9c0,0-5.7,2.4-10.6,2.7
							c-4.9,0.3-5.3,6.7-3.9,11.6c1.4,4.8,7.5,5.4,14,5.7C75.6,78.6,79.6,84.2,79.6,84.2"/>
						<path id="Fill-2" class="st2" d="M63.7,23.3c0,0,3.8,36.4-18.5,48.6c-24.6,13.4-8,35.3,1.9,32c0,0-26.5,5.2-26.4-27.9
							c0,0,36.5-2,36.5-38.8v-14L63.7,23.3z"/>
						<path id="Stroke-3" class="st3" d="M84.7,107.3V99C84.7,87,75,77.4,63,77.4c-4.9,0-9-4-9-8.9c0-4.5,3.7-8.2,8.3-8.2
							c4.8,0,8.9-2.6,11.1-6.5l-3.8-3.8l5.3-2.2v-5.5c3.2,0.8,5.6-2.7,3.7-5.4l-0.4-0.5c-2.4-4.1-3.7-8.8-3.7-13.5v-1.7
							c0-11.6-9.4-21-21.1-21H47"/>
						<path id="Fill-5" class="st1" d="M20,71.2V28.5C20,12.8,32.8,0.1,48.6,0.1l8.5,0.4C68.2,1,77,10.2,77,21.4v1.7l-19.9,0.2v14
							c0,17.2-11.2,31.8-26.7,37.1c-3.2,1.1-6.5,1.6-9.8,1.7"/>
						<path id="Fill-6" class="st1" d="M20.5,23.4c0,0,12.4-1.5,13.7,13.1c1.3,14.6,19.5,14.8,22.9,0.8c0,0-0.1,34.9-36.5,38.8
							L20.5,23.4z"/>
						<path id="Stroke-7" class="st3" d="M20,71.2V28.5C20,12.8,32.8,0.1,48.6,0.1l8.5,0.4C68.2,1,77,10.2,77,21.4v1.7l-19.9,0.2v14
							c0,17.2-11.2,31.8-26.7,37.1c-3.2,1.1-6.5,1.6-9.8,1.7c-11.4,0.3-20.5,9.6-20.5,21v10.7"/>
						<path id="Stroke-8" class="st3" d="M20,28.5v42.7v8.7c0,13.4,10.9,24.2,24.3,24.2c12,0,21.9-8.6,23.9-19.9"/>
						<path id="Stroke-9" class="st3" d="M69.1,31.6c-1.9,1.9-4.9,1.9-6.7,0"/>
						<path id="Stroke-10" class="st3" d="M69.6,58.3c3.1,8.1,11,13.9,20.2,13.9c0,0-0.7,9.3-10.2,12"/>
					</g>
				</g>
			</g>
		</g>
	</g>
</g>
</svg>
