<?xml version="1.0" encoding="utf-8"?>
<!-- Generator: Adobe Illustrator 23.0.1, SVG Export Plug-In . SVG Version: 6.00 Build 0)  -->
<svg version="1.1" id="Layer_1" xmlns="http://www.w3.org/2000/svg" xmlns:xlink="http://www.w3.org/1999/xlink" x="0px" y="0px"
	 viewBox="0 0 126 126" style="enable-background:new 0 0 126 126;" xml:space="preserve">
<style type="text/css">
	.st0{fill:none;}
	.st1{fill-rule:evenodd;clip-rule:evenodd;fill:#90BB49;}
	.st2{fill-rule:evenodd;clip-rule:evenodd;fill:#D6CF8D;}
	.st3{fill:none;stroke:#001E62;stroke-width:2.8;stroke-linecap:square;stroke-linejoin:round;}
</style>
<title>D3A78F6E-5F36-44B0-A693-C3253B67A38E</title>
<desc>Created with sketchtool.</desc>
<g id="Design">
	<g id="Landing_1440_desktop" transform="translate(-217.000000, -1130.000000)">
		<g id="Benefits" transform="translate(0.000000, 780.000000)">
			<g id="item" transform="translate(100.000000, 240.000000)">
				<g id="Illustration" transform="translate(117.000000, 110.000000)">
					<rect id="Box" class="st0" width="126" height="126"/>
					<g id="Page-1" transform="translate(12.000000, 16.000000)">
						<path id="Fill-1" class="st1" d="M98.9,21.3c0,0-2.6,4.6-2.6,9.7v7.5c0,5-2,9.9-5.6,13.5l-5.6,5.6L56,28.4
							c0,0,9.9-5.8,18.3,3.2c4.4,4.8,10.9,3.9,11.7-1.7C86.6,25.4,91.3,19.4,98.9,21.3"/>
						<path id="Fill-2" class="st2" d="M89.8,62.5l-7.3-7.4l-8.2-7.8c-3.9-3.9-10.1-4.1-14.1-0.3c-4.1,3.9-15.1,7.2-22.6,1.6
							c-13.9-10.4-19-14.5-30.2-9l32.8,32.5l20,20c2,2,5.3,2,7.3,0v0c2-2,2-5.3,0-7.4l0-0.3l0.2,0.2c2,2,5.3,2,7.3,0
							c2-2,2-5.1,0.2-7.1c2,1.8,5.2,1.8,7.1-0.2c2-2,2-5.3,0-7.4l0.1-0.1c2,2,5.3,2,7.3,0C91.8,67.8,91.8,64.5,89.8,62.5"/>
						<path id="Stroke-3" class="st3" d="M75.9,0.1l-4.5,4.5C68.1,7.8,63.6,9.4,59,8.9c-4.6-0.5-9.1,1.1-12.4,4.3L26.8,33.2
							c2.4,7.2,15.9,7.3,20.1,0c4.2-7.3,9.1-4.8,9.1-4.8l29.1,29.2l5.6-5.6c3.6-3.6,5.6-8.4,5.6-13.5V31c0-5,2-9.9,5.6-13.5"/>
						<path id="Stroke-4" class="st3" d="M82,54.5l7.3,7.4c2,2,2,5.3,0,7.4c-2,2-5.3,2-7.3,0L65.6,52.6"/>
						<path id="Stroke-5" class="st3" d="M81.9,69.3c2,2,2,5.3,0,7.4c-2,2-5.3,2-7.3,0L58.1,60.1"/>
						<path id="Stroke-6" class="st3" d="M74.6,76.7c2,2,2,5.3,0,7.4c-2,2-5.3,2-7.3,0L50.8,67.5"/>
						<path id="Stroke-7" class="st3" d="M67.2,84.1c2,2,2,5.3,0,7.4c-2,2-5.3,2-7.3,0l-20-20L0.1,31.6"/>
						<path id="Stroke-8" class="st3" d="M56.3,87.9l-2.4,2.4c-2,2-5.3,2-7.3,0c-2-2-2-5.3,0-7.4l1.7-1.7"/>
						<path id="Stroke-9" class="st3" d="M40.8,73.5l-6.7,6.7c-2,2-2,5.3,0,7.4c2,2,5.3,2,7.3,0l6.4-6.4"/>
						<path id="Stroke-10" class="st3" d="M33.4,66.1l-6.7,6.7c-2,2-2,5.3,0,7.4c2,2,5.3,2,7.3,0l7.2-7.3"/>
						<path id="Stroke-11" class="st3" d="M26.3,58l-7.2,7.3c-2,2-2,5.3,0,7.4c2,2,5.3,2,7.3,0l6.3-6.3"/>
					</g>
				</g>
			</g>
		</g>
	</g>
</g>
</svg>
