<?xml version="1.0" encoding="utf-8"?>
<!-- Generator: Adobe Illustrator 23.0.1, SVG Export Plug-In . SVG Version: 6.00 Build 0)  -->
<svg version="1.1" id="Layer_1" xmlns="http://www.w3.org/2000/svg" xmlns:xlink="http://www.w3.org/1999/xlink" x="0px" y="0px"
	 viewBox="0 0 126 126" style="enable-background:new 0 0 126 126;" xml:space="preserve">
<style type="text/css">
	.st0{fill:none;}
	.st1{fill:#90BB49;}
	.st2{fill:none;stroke:#001E62;stroke-width:2.8;stroke-linecap:square;}
	.st3{fill:none;stroke:#001E62;stroke-width:2;stroke-linecap:square;stroke-linejoin:round;}
	.st4{fill:none;stroke:#D6CF8D;stroke-width:2;stroke-linecap:square;stroke-linejoin:round;}
	.st5{fill:none;stroke:#001E62;stroke-width:2;}
	.st6{fill:none;stroke:#001E62;stroke-width:2;stroke-linecap:square;}
	.st7{fill:#D6CF8D;stroke:#001E62;stroke-width:2;stroke-linecap:square;}
	.st8{fill:#FFFFFF;stroke:#001E62;stroke-width:2;stroke-linecap:square;}
</style>
<title>easier-management</title>
<desc>Created with Sketch.</desc>
<g id="Design">
	<g id="Landing_1440_desktop" transform="translate(-1097.000000, -1556.000000)">
		<g id="Benefits" transform="translate(0.000000, 780.000000)">
			<g id="item" transform="translate(980.000000, 666.000000)">
				<g id="Illustration" transform="translate(117.000000, 110.000000)">
					<rect id="Box" class="st0" width="126" height="126"/>
					<g id="illie" transform="translate(1.000000, 26.000000)">
						<path id="Shape" class="st1" d="M102.2,23.3v48.3H47.6c0,0,42.9-12.1,46-53.2h2.3C99.3,18.4,101.5,20.8,102.2,23.3z"/>
						<path class="st2" d="M107.4,71.4H15.3"/>
						<path class="st2" d="M20.9,45.6v21.1c0,2.6-2.2,4.7-4.8,4.7H1.8c-1.5,0-2.3,1.9-1.3,3l0.4,0.4c1.3,1.3,3.1,2,4.8,2h110.7
							c1.8,0,3.6-0.7,4.8-2l0.4-0.4c1.1-1.1,0.4-3-1.3-3h-13.8c-2.6,0-4.8-2.1-4.8-4.7V24.6c0-3.4-2.7-6.1-6.1-6.1
							c-23.8,0-41.7,0-53.7,0"/>
						<path class="st0" d="M39.2,37.2H10.6c-1,0-1.9-0.8-1.9-1.9V4.8c0-1,0.8-1.9,1.9-1.9h28.6c1,0,1.9,0.8,1.9,1.9v30.5
							C41.1,36.4,40.3,37.2,39.2,37.2z"/>
						<path class="st3" d="M8,20.6v13.3c0,2,1.6,3.6,3.6,3.6h27.6c1.2,0,2.2-1,2.2-2.1V5.6c0-1.4-1.2-2.7-2.7-2.7H9.2
							C8.5,3,8,2.4,8,1.8C8,1,8.6,0.4,9.4,0.4s1.4,0.6,1.4,1.4v2.1c0,0.8,0.6,1.4,1.4,1.4h0.3c0.8,0,1.4-0.7,1.4-1.5v-2
							c0-0.9,0.7-1.6,1.5-1.6h0.1c0.8,0,1.5,0.7,1.5,1.6v2c0,0.9,0.6,1.5,1.4,1.5S20,4.6,20,3.8v-2c0-0.9,0.7-1.6,1.5-1.6
							s1.5,0.7,1.5,1.6v2c0,0.9,0.6,1.5,1.4,1.5h0.2c0.8,0,1.4-0.7,1.4-1.5v-2c0-0.9,0.7-1.6,1.5-1.6s1.5,0.7,1.5,1.6v2
							c0,0.9,0.6,1.5,1.4,1.5s1.4-0.7,1.4-1.5v-2c0-0.9,0.7-1.6,1.5-1.6s1.5,0.7,1.5,1.6v2c0,0.9,0.6,1.5,1.4,1.5h0.2
							c0.8,0,1.4-0.7,1.4-1.5v-2c0-0.9,0.7-1.6,1.5-1.6h0.2"/>
						<g id="Group" transform="translate(10.773723, 9.848837)">
							<path class="st4" d="M26.7,6.3H5.1"/>
							<path class="st4" d="M26.7,11.8H16"/>
							<path class="st4" d="M26.7,17.5h-8.3"/>
							<path class="st4" d="M16,0.6v11.2"/>
							<path class="st4" d="M21.4,0.9V23"/>
							<path class="st4" d="M10.2,1.2V9"/>
							<path class="st4" d="M5,0.6v5.6"/>
							<polyline class="st4" points="0.7,0.6 26.8,0.7 26.8,23.5 18.6,23.5 							"/>
						</g>
						<g transform="translate(16.160584, 25.069767)">
							<path class="st5" d="M2.9,0v5.1"/>
							<path class="st5" d="M5.5,2.5H0.4"/>
						</g>
						<ellipse id="Oval" class="st5" cx="19" cy="27.6" rx="5.9" ry="5.9"/>
						<path class="st6" d="M47.6,37.7h32c0.5,0,0.9,0.4,0.9,0.9v18c0,0.5-0.4,0.9-0.9,0.9H45.6h-3c-0.5,0-0.9-0.4-0.9-0.9v-11"/>
						<path class="st7" d="M68.8,49.6H53.9c-0.5,0-0.9-0.4-0.9-0.9v-2.3c0-0.5,0.4-0.9,0.9-0.9h14.9c0.5,0,0.9,0.4,0.9,0.9v2.3
							C69.7,49.2,69.2,49.6,68.8,49.6z"/>
						<path class="st8" d="M42,63l-3.9,3.9c-0.7,0.7-2,0.8-2.6,0l-1.2-1.2c-0.7-0.7-0.8-2,0-2.6l3.9-3.8L35.9,58
							c-1.6-0.8-1.3-3,0.4-3.4L50,51.2l-0.4,1.6l-3.1,12.1c-0.4,1.6-2.7,1.9-3.5,0.4L42,63z"/>
					</g>
				</g>
			</g>
		</g>
	</g>
</g>
</svg>
