<?xml version="1.0" standalone="no"?>
<!DOCTYPE svg PUBLIC "-//W3C//DTD SVG 20010904//EN"
 "http://www.w3.org/TR/2001/REC-SVG-20010904/DTD/svg10.dtd">
<svg version="1.0" xmlns="http://www.w3.org/2000/svg"
 width="512.000000pt" height="512.000000pt" viewBox="0 0 512.000000 512.000000"
 preserveAspectRatio="xMidYMid meet">
<metadata>
Created by potrace 1.11, written by Peter Selinger 2001-2013
</metadata>
<g transform="translate(0.000000,512.000000) scale(0.100000,-0.100000)"
fill="#000000" stroke="none">
<path d="M2485 5114 c-94 -23 -99 -28 -1275 -1204 -1292 -1291 -1205 -1194
-1204 -1350 0 -65 5 -96 21 -131 30 -66 83 -121 150 -155 58 -29 59 -29 260
-32 l203 -4 2 -1001 3 -1002 28 -54 c35 -66 89 -120 153 -152 l49 -24 1685 0
1685 0 47 24 c84 41 142 108 172 195 14 45 16 146 16 1032 l0 983 203 3 c181
3 207 5 248 24 67 31 124 87 156 152 24 49 28 69 28 142 0 140 -10 155 -347
495 l-287 290 -2 585 c0 322 -3 598 -5 614 -14 84 -93 184 -180 227 -48 23
-55 24 -294 24 -241 0 -246 0 -295 -25 -64 -32 -124 -92 -155 -155 -20 -42
-25 -70 -29 -178 l-6 -128 -350 349 c-352 351 -417 410 -484 438 -37 15 -159
26 -196 18z m496 -1069 c75 -27 129 -94 129 -162 0 -15 -52 -320 -117 -676
-117 -646 -120 -673 -87 -684 6 -2 16 7 22 21 6 13 75 266 152 563 88 331 151
554 166 580 34 59 95 87 178 81 72 -6 133 -34 170 -78 50 -60 55 -19 -90 -790
-47 -250 -87 -456 -88 -457 -1 -1 -22 5 -46 14 -62 21 -171 28 -268 14 -104
-13 -243 -78 -323 -150 l-56 -50 -12 64 c-24 117 -75 208 -187 326 -72 76 -83
110 -66 204 6 33 61 282 121 554 83 367 118 505 136 537 51 87 163 125 266 89z
m-611 -195 c50 -25 65 -48 85 -130 15 -65 15 -67 -43 -502 -32 -241 -61 -440
-63 -442 -3 -3 -36 -1 -74 5 -130 19 -287 -11 -376 -70 -24 -17 -44 -29 -45
-28 -6 6 198 1019 212 1055 45 119 187 172 304 112z m1595 -630 c27 -13 49
-34 65 -61 22 -40 23 -48 17 -183 -9 -195 -31 -370 -82 -651 -93 -507 -219
-1109 -255 -1217 -133 -399 -434 -656 -876 -745 -137 -27 -463 -25 -602 5
-236 51 -396 131 -544 271 -169 160 -245 304 -362 692 -34 113 -232 847 -296
1099 -49 191 -32 289 70 391 109 110 251 99 350 -25 90 -114 131 -210 166
-384 50 -254 113 -407 359 -882 84 -162 229 -441 307 -592 8 -16 67 12 501
228 271 136 535 271 587 302 133 77 228 175 283 289 37 78 41 93 41 162 -1
137 -70 329 -153 423 -26 29 -41 56 -41 72 0 24 76 291 177 616 38 124 68 174
117 196 46 20 123 17 171 -6z"/>
</g>
</svg>
